<?xml version="1.0" encoding="UTF-8" standalone="no"?>
<svg width="459px" height="459px" viewBox="0 0 459 459" version="1.1" xmlns="http://www.w3.org/2000/svg" xmlns:xlink="http://www.w3.org/1999/xlink" xmlns:sketch="http://www.bohemiancoding.com/sketch/ns">
    <!-- Generator: Sketch 3.3.3 (12081) - http://www.bohemiancoding.com/sketch -->
    <title>Gloria Logo</title>
    <desc>Created with Sketch.</desc>
    <defs></defs>
    <g id="Page-1" stroke="none" stroke-width="1" fill="none" fill-rule="evenodd" sketch:type="MSPage">
        <g id="Gloria-Logo" sketch:type="MSArtboardGroup" stroke-linecap="round">
            <path d="M413.598047,57.0273437 C412.836187,33.8278199 427.955131,16.3984375 396.845703,16.3984375 C366.428618,16.3984375 333.838518,31.0069373 309.555078,57.0273437 C266.598858,103.056172 241.398828,181.227788 241.398828,251.949219 C241.398828,362.649951 312.622273,442.601563 396.845697,442.601563 C424.453934,442.601562 413.598047,414.59375 413.598047,405.839844" id="Oval-1-Copy" stroke="#0068A3" stroke-width="20" sketch:type="MSShapeGroup" transform="translate(329.004721, 229.500000) scale(-1, 1) translate(-329.004721, -229.500000) "></path>
            <path d="M214.588606,57.0273437 C213.826746,33.8278199 228.94569,16.3984375 197.836262,16.3984375 C167.419177,16.3984375 134.829077,31.0069373 110.545637,57.0273437 C67.5894172,103.056172 42.389387,181.227788 42.389387,251.949219 C42.389387,362.649951 113.612832,442.601563 197.836256,442.601563 C225.444493,442.601562 214.588606,391.410156 214.588606,334.902344 C214.588606,273.21875 148.976171,287.894531 148.976171,287.894531" id="Oval-1" stroke="#C50000" stroke-width="20" sketch:type="MSShapeGroup"></path>
            <path d="M217.101176,59.2472976 C220.475993,40.5098981 224.666089,63.2773433 198.769145,63.2773433 C173.448539,63.2773433 142.208444,71.3982936 121.993772,93.0414355 C86.2350037,131.327097 65.257319,196.348347 65.257319,255.172715 C65.257319,347.250894 124.547048,413.752702 194.658569,413.752702 C217.640958,413.752702 208.604009,371.172934 208.604009,324.171108 C208.604009,272.864194 153.985148,285.071152 153.985148,285.071152" id="Oval-1-Copy-3" stroke="#C50000" stroke-width="10" sketch:type="MSShapeGroup"></path>
            <path d="M380.123515,54.4570315 C379.489307,35.1602313 396.976768,70.2472985 371.079824,70.2472985 C345.759218,70.2472985 318.629694,82.3982936 298.415022,104.041435 C262.656254,142.327097 241.678569,207.348347 241.678569,266.172715 C241.678569,358.250894 300.968298,424.752702 371.079819,424.752702 C394.062208,424.752702 385.025264,414.191457 385.025264,406.910171" id="Oval-1-Copy-2" stroke="#0068A3" stroke-width="10" sketch:type="MSShapeGroup" transform="translate(314.227577, 236.707868) scale(-1, 1) translate(-314.227577, -236.707868) "></path>
            <path d="M247.389506,209.5 C247.389506,209.5 241.678569,236 241.678569,262.5 C241.678569,289 247.389506,315.5 247.389506,315.5" id="Line" stroke="#0068A2" stroke-width="20" sketch:type="MSShapeGroup"></path>
            <path d="M248.100444,350 L248.100444,359.5" id="Line-Copy" stroke="#0068A2" stroke-width="20" sketch:type="MSShapeGroup"></path>
        </g>
    </g>
</svg>